<svg fill="currentColor" width="24" height="24" version="1.1" viewBox="0 0 24 24" xmlns="http://www.w3.org/2000/svg">
 <path d="m2.8838 3.1874a.20686.20686 0 00-.064856.010372l-.38654.12712c-.76555.2509-1.408.79381-1.7745 1.4995-.16804.32357-.28314.44419-.32169 1.2712-.038539.827-.031131 2.4208-.031131 5.8993 0 3.4786-.007415 5.0723.03113 5.8993.038539.827.15364.94762.32169 1.2712.4189.80658 1.1898 1.3897 2.0962 1.5902.10896.0241.23656.02636.5448.03372.30824.0073.77366.01196 1.4631.01556 1.379.0073 3.653.0084 7.3469.0052l9.0513-.0079a.20686.20686 0 00.07003-.01302l.37097-.13231c.79999-.28641 1.4187-.83312 1.7718-1.5695.10805-.22535.21525-.49424.25683-.66413.02303-.0941.02863-.1978.03631-.41768.0077-.21988.01397-.54343.01816-1.0169.0084-.94701.01032-2.4926.01032-4.9939-1e-6-3.444.0061-5.027-.03114-5.8526-.037136-.82546-.14449-.94908-.30862-1.284-.34274-.69932-.97613-1.2445-1.7537-1.5228l-.37097-.1349a.20686.20686 0 00-.07004-.012977h-9.1395zm9.1162 1.8393c4.427 0 6.6636-.0003349 7.8138.010372.57512.00535.88066.014647 1.0429.025942.05013.00349.03416.00549.05708.00779l-4.3764 3.9043v-.00259c-1.2758 1.1379-2.4406 2.1751-3.2869 2.9263-.42318.3756-.76511.67901-1.004.88982-.10516.09281-.18178.16096-.24386.21532-.06147-.05309-.13501-.11925-.23867-.21013-.23849-.20911-.58097-.51239-1.004-.88724-.84603-.7497-2.0104-1.7836-3.287-2.9238l-4.3791-3.9121c.022104-.00201.00539-.00471.04929-.00779.16168-.011288.46796-.020584 1.0429-.025939 1.1498-.01071 3.3864-.010372 7.8138-.010372zm-9.8141 1.6966 4.6515 4.1534c1.3742 1.2268 2.6271 2.3429 3.5386 3.152.45576.40453.82656.73287 1.0844.95986.12892.1135.22873.20164.29833.26202.03481.03019.06078.05349.08043.07004.0098.0082.01827.01463.02594.02077.0038.0031.0065.0057.01302.01032.0032.0023.01776.01011.01816.01032.000203.000123.02062.01288.02076.01302.000134 6e-5.08554.01816.08561.01816 6.6e-5-1e-6.08547-.01811.08561-.01816.000134-6.2e-5.02054-.01288.02076-.01302.000405-.000244.01492-.0081.01816-.01032.0065-.0047.0091-.0073.01302-.01032.0077-.0061.01613-.01249.02594-.02077.01963-.01653.04564-.03987.08043-.07004.06958-.06033.1695-.1486.29833-.26202.25767-.22683.62889-.55301 1.0844-.95728.911-.80852 2.1623-1.9257 3.536-3.152l4.6489-4.1534.01032 5.4116c.0061 3.2613.01614 4.7799-.01556 5.518-.01584.36906-.04479.53974-.07264.61744-.02785.07769-.06146.09762-.15047.21532-.16326.2159-.45654.39875-.73157.454.039-.0079-.0053-.0016-.0441 0-.03879.0016-.09309.0036-.16344.0052-.14072.0032-.33969.0076-.58889.01032-.49842.0055-1.1965.009-2.0261.01302-1.6593.0079-3.8481.01235-6.0368.01302-2.1886.000638-4.3771-.000957-6.0368-.0079-.82986-.0034-1.5274-.0077-2.0261-.01302-.24938-.0027-.45057-.0073-.59149-.01032-.070457-.0016-.12453-.0036-.16344-.0052-.038907-.0016-.084476-.0074-.046696 0-.36047-.07132-.76201-.4159-.88982-.75752-.021277-.05682-.027869-.06607-.038913-.1816-.011051-.11552-.021051-.3225-.025942-.70564-.00979-.76627-.00545-2.2378 0-5.1573z" style=""/>
</svg>