<svg width="24" fill="currentColor" height="24" version="1.1" viewBox="0 0 24 24" xmlns="http://www.w3.org/2000/svg">
 <path d="m12 9.4868c-3.9962 0-7.2567 3.2604-7.2567 7.2567 0 3.9964 3.2605 7.2567 7.2567 7.2567 3.9962 0 7.2567-3.2604 7.2567-7.2567 0-3.9964-3.2605-7.2567-7.2567-7.2567zm0 2.0501c2.8887 0 5.2066 2.3177 5.2066 5.2066 0 2.8889-2.3179 5.2066-5.2066 5.2066-2.8887 0-5.2066-2.3177-5.2066-5.2066 0-2.8889 2.3179-5.2066 5.2066-5.2066z" color="#000000" color-rendering="auto" dominant-baseline="auto" image-rendering="auto" shape-rendering="auto" solid-color="#000000" stroke-width=".80985" style="font-feature-settings:normal;font-variant-alternates:normal;font-variant-caps:normal;font-variant-ligatures:normal;font-variant-numeric:normal;font-variant-position:normal;isolation:auto;mix-blend-mode:normal;paint-order:stroke fill markers;shape-padding:0;text-decoration-color:#000000;text-decoration-line:none;text-decoration-style:solid;text-indent:0;text-orientation:mixed;text-transform:none;white-space:normal"/>
 <path d="m11.983 0.055416c-0.12054 0.003141-0.2398 0.042999-0.33984 0.11719l-10.336 7.7051c-0.27956 0.209-0.28532 0.6393-0.0097656 0.85352l3.3079 3.6367c0.00619 0.0056 0.012716 0.01081 0.019531 0.01563 0.00137 1e-3 0.00268 0.0011 0.00391 2e-3 0.044922 0.03431 0.085483 0.07253 0.16016 0.09766 0.074673 0.02513 0.1514 0.01864 0.21484 0.0078 0.079236-0.01353 0.16296-0.04934 0.2207-0.10156 0.05483-0.04959 0.083141-0.09972 0.11133-0.14648l0.31055-0.46094 0.00391-0.0059c2.2457-2.9382 4.3717-3.3239 6.3503-3.3239s4.1319 0.74083 6.2683 3.2789c0.0024 0.0047 5e-3 0.0092 0.0078 0.01367l0.35742 0.50195c0.01665 0.03459 0.02916 0.07027 0.07031 0.12305 0.04854 0.06225 0.14171 0.11564 0.22656 0.13281 0.14847 0.03005 0.32905 0.0184 0.48047-0.0957 0.0061-0.0049 0.01202-0.0101 0.01758-0.01563 8.22e-4 -7.79e-4 0.0044-0.0045 0.0059-0.0059l0.01172-0.01172 3.2551-3.6425c0.27556-0.21421 0.2698-0.64452-0.0098-0.85352l-10.334-7.7051c-0.1101-0.081664-0.24259-0.1211-0.375-0.11719zm0.01758 2.4004 7.877 5.873-1.2292 1.2477c-2.7582-2.4349-5.324-2.7557-6.6478-2.7557s-4.3878 0.28959-6.7643 2.7801l-1.1127-1.2721z" color="#000000" color-rendering="auto" dominant-baseline="auto" image-rendering="auto" shape-rendering="auto" solid-color="#000000" stroke-width=".90682" style="font-feature-settings:normal;font-variant-alternates:normal;font-variant-caps:normal;font-variant-ligatures:normal;font-variant-numeric:normal;font-variant-position:normal;isolation:auto;mix-blend-mode:normal;shape-padding:0;text-decoration-color:#000000;text-decoration-line:none;text-decoration-style:solid;text-indent:0;text-orientation:mixed;text-transform:none;white-space:normal"/>
</svg>