<svg width="100mm" height="100mm" version="1.1" viewBox="0 0 100 100" xmlns="http://www.w3.org/2000/svg">
 <g transform="translate(0,-197)">
  <path d="m5.855 291.15-0.45615-0.45614v-87.378l0.45615-0.45615 0.45615-0.45615h87.378l0.9123 0.9123v87.378l-0.9123 0.91229h-87.378zm21.844-4.5451c0-4.4041 1.1282-7.4104 3.8531-10.267l1.0353-1.0854h-8.4362l-0.45616-0.45614-0.45615-0.45615v-12.468h-2.5173c-2.4249 0-2.534-0.0167-2.9734-0.45615l-0.45615-0.45615v-18.989l0.45615-0.45615c0.4394-0.4394 0.54854-0.45615 2.9734-0.45615h2.5173v-4.004c0-4.0033 7e-5 -4.004 0.45615-4.4601l0.45616-0.45615h24.362v-3.3l-0.56389-0.23357c-0.76561-0.31713-1.9241-1.6724-2.191-2.5632-0.50884-1.6984-0.13612-3.1043 1.1689-4.4094 1.8802-1.8802 4.2651-1.8802 6.1453 0 1.4402 1.4402 1.7645 3.0915 0.95053 4.8394-0.44264 0.95054-1.4641 2.0063-2.1526 2.2248-0.35021 0.11115-0.38389 0.26745-0.38389 1.7819v1.66h24.362l0.45615 0.45615c0.45608 0.45608 0.45615 0.45678 0.45615 4.4601v4.004h2.5173c2.4249 0 2.534 0.0167 2.9734 0.45615l0.45616 0.45615v18.989l-0.45616 0.45615c-0.4394 0.4394-0.54854 0.45615-2.9734 0.45615h-2.5173v12.468l-0.45615 0.45615-0.45615 0.45614h-8.4362l1.0183 1.0686c2.7284 2.863 3.87 5.8966 3.87 10.284v2.0279h19.327v-71.362h-83.256v71.362h19.327zm41.625-0.0628c-0.0014-1.2037-0.12163-2.595-0.28297-3.2795-0.8702-3.6916-4.0328-6.8543-7.7245-7.7245-1.7568-0.41412-20.877-0.41412-22.634 0-3.6917 0.8702-6.8543 4.0328-7.7245 7.7245-0.16134 0.68445-0.28139 2.0758-0.28297 3.2795l-0.0027 2.0907h38.654l-0.0028-2.0907zm4.4629-32.847v-18.584h-47.575v37.168h47.575zm-33.764 15.128c-0.45687-0.45687-0.47598-0.55255-0.36725-1.8388 0.36092-4.2697 3.1273-7.6962 7.3704-9.1293 0.73892-0.24955 1.5627-0.34519 2.9734-0.34519 2.962 0 5.2748 0.93181 7.2734 2.9305 1.8102 1.8102 2.8593 4.0461 3.0704 6.544 0.10873 1.2863 0.08962 1.382-0.36725 1.8388l-0.48195 0.48195h-18.989zm17.224-2.7238c-3.73e-4 -0.45549-1.0778-2.5001-1.6775-3.1831-2.9575-3.3684-8.2878-3.3261-11.211 0.089-0.66906 0.78165-1.3063 1.9687-1.5253 2.8414l-0.12175 0.4851h7.2678c5.6905 0 7.2678-0.0504 7.2677-0.2323zm-23.603-11.756-1.011-1.0237 4.0726-4.0852-4.0769-4.0896 2.1308-2.1308 4.0896 4.0769 4.0896-4.0769 2.1308 2.1308-4.0769 4.0896 4.0769 4.0896-2.1308 2.1308-4.0896-4.0769-2.0008 1.9946c-1.1004 1.097-2.0441 1.9946-2.097 1.9946-0.05293 0-0.55118-0.46067-1.1072-1.0237zm22.301 0-1.011-1.0237 4.0726-4.0852-4.0769-4.0896 2.1308-2.1308 4.0896 4.0769 4.0896-4.0769 2.1308 2.1308-4.0769 4.0896 4.0769 4.0896-2.1308 2.1308-4.0896-4.0769-2.0008 1.9946c-1.1004 1.097-2.0441 1.9946-2.097 1.9946-0.05296 0-0.55118-0.46067-1.1072-1.0237zm-32.706-2.8789v-7.4336h-2.9734v14.867h2.9734zm56.495 0v-7.4336h-2.9734v14.867h2.9734zm-28.704-25.73c0.92179-0.92179 0.26861-2.5173-1.0306-2.5173-0.36208 0-0.74302 0.16861-1.0306 0.45615-0.28753 0.28754-0.45615 0.66848-0.45615 1.0306s0.16861 0.74302 0.45615 1.0306c0.28753 0.28754 0.66848 0.45615 1.0306 0.45615 0.36208 0 0.74302-0.16861 1.0306-0.45615zm40.597-15.898v-4.4601h-83.256v8.9202h83.256zm-80.282 0v-1.4867h2.9734v2.9734h-2.9734zm5.9468 0v-1.4867h2.9734v2.9734h-2.9734zm5.9468 0v-1.4867h2.9734v2.9734h-2.9734zm20.814 0v-1.4867h44.601v2.9734h-44.601z"/>
 </g>
</svg>
