<svg width="24" height="24" fill="currentColor" stroke="currentColor" stroke-linecap="round" stroke-linejoin="round" stroke-width="2" version="1.1" viewBox="0 0 24 24" xmlns="http://www.w3.org/2000/svg">
 <path d="m5.2891-0.025391c-0.2395 0.0065916-0.48438 0.066406-0.48438 0.066406a1.0001 1.0001 0 0 0-0.63477 0.56445c-0.53908 1.2577-0.55353 2.6441-0.20117 3.9551-0.90718 1.1425-1.4757 2.5203-1.4688 3.9902 0 7.439e-4 -1e-7 0.00121 0 0.00195 3.3e-6 6.52e-4 -3.5e-6 0.0013 0 0.00195 9.657e-4 2.9105 0.94629 4.9254 2.3984 6.1465 1.035 0.87032 2.2489 1.2643 3.4609 1.5312-0.24608 0.59168-0.37512 1.2209-0.34375 1.8731-0.65623 0.11484-1.3366 0.24145-1.709 0.1543-0.52431-0.12271-0.87129-0.36348-1.2246-0.7168-0.35332-0.35332-0.67776-0.82162-1.0859-1.3008-0.40817-0.47916-0.94955-1.0118-1.7539-1.2129a1.0005 1.0005 0 1 0-0.48438 1.9414c0.19564 0.04891 0.40427 0.20377 0.71484 0.56836 0.31058 0.36459 0.67363 0.89629 1.1953 1.418 0.52168 0.52168 1.2372 1.0309 2.1816 1.252 0.59082 0.13828 1.403-0.059261 2.1504-0.1582v1.9492a1.0001 1.0001 0 1 0 2 0v-2.8496a1.0001 1.0001 0 0 0 0-0.31055v-0.70898a1.0001 1.0001 0 0 0-0.00195-0.07031c-0.04725-0.67176 0.19184-1.3305 0.66015-1.8145a1.0001 1.0001 0 0 0-0.5957-1.6875c-1.4891-0.18495-2.8948-0.56286-3.877-1.3887s-1.6855-2.1121-1.6855-4.6191a1.0001 1.0001 0 0 0 0-0.00586c-0.0061046-1.1483 0.43279-2.2543 1.2246-3.0859a1.0001 1.0001 0 0 0 0.21289-1.0391c-0.28535-0.76461-0.26069-1.5781-0.072266-2.3613 0.49295 0.11493 1.3224 0.41023 2.5781 1.252a1.0001 1.0001 0 0 0 0.81836 0.13477c2.1207-0.57477 4.3558-0.57477 6.4766 0a1.0001 1.0001 0 0 0 0.81836-0.13477c1.2557-0.84172 2.0852-1.137 2.5781-1.252 0.18842 0.78324 0.21308 1.5967-0.072266 2.3613a1.0001 1.0001 0 0 0 0.21289 1.0391c0.78595 0.82555 1.2244 1.9207 1.2246 3.0605 0 2.5285-0.7059 3.8266-1.6855 4.6504-0.97965 0.82375-2.3809 1.19-3.8652 1.3555a1.0001 1.0001 0 0 0-0.60742 1.6914c0.47403 0.48897 0.71552 1.1551 0.66211 1.834a1.0001 1.0001 0 0 0-0.003906 0.080078v3.8691a1.0001 1.0001 0 1 0 2 0v-3.8691l-0.0039 0.07813c0.05455-0.69344-0.0917-1.3649-0.35156-1.9941 1.2112-0.25725 2.4239-0.64499 3.457-1.5137 1.4553-1.2238 2.3984-3.2502 2.3984-6.1816-2.68e-4 -1.4596-0.56774-2.8267-1.4688-3.9609 0.35176-1.3105 0.33765-2.696-0.20117-3.9531a1.0001 1.0001 0 0 0-0.63477-0.56445s-0.24488-0.059815-0.48437-0.066406c-0.2395-0.0065916-0.55652 0.016335-0.94922 0.10352-0.69101 0.15341-1.7234 0.63921-2.9199 1.3809-2.2007-0.52684-4.4829-0.52684-6.6836 0-1.1965-0.74165-2.2289-1.2275-2.9199-1.3809-0.3927-0.08718-0.70972-0.11011-0.94922-0.10352z" color="#000000" color-rendering="auto" dominant-baseline="auto" image-rendering="auto" shape-rendering="auto" solid-color="#000000" stroke="none" style="font-feature-settings:normal;font-variant-alternates:normal;font-variant-caps:normal;font-variant-ligatures:normal;font-variant-numeric:normal;font-variant-position:normal;isolation:auto;mix-blend-mode:normal;shape-padding:0;text-decoration-color:#000000;text-decoration-line:none;text-decoration-style:solid;text-indent:0;text-orientation:mixed;text-transform:none;white-space:normal"/>
</svg>
