<svg width="24" height="24" fill="currentColor" stroke="currentColor" stroke-linecap="round" stroke-linejoin="round" stroke-width="2" version="1.1" viewBox="0 0 24 24" xmlns="http://www.w3.org/2000/svg">
 <g shape-rendering="auto" stroke="none">
  <path d="m16 7c-3.8541 0-7 3.1459-7 7v7a1.0001 1.0001 0 0 0 1 1h4a1.0001 1.0001 0 0 0 1-1v-7c0-0.56413 0.43587-1 1-1s1 0.43587 1 1v7a1.0001 1.0001 0 0 0 1 1h4a1.0001 1.0001 0 0 0 1-1v-7c0-3.8541-3.1459-7-7-7zm0 2c2.7733 0 5 2.2267 5 5v6h-2v-6c0-1.645-1.355-3-3-3s-3 1.355-3 3v6h-2v-6c0-2.7733 2.2267-5 5-5z" color="#000000" color-rendering="auto" dominant-baseline="auto" image-rendering="auto" solid-color="#000000" style="font-feature-settings:normal;font-variant-alternates:normal;font-variant-caps:normal;font-variant-ligatures:normal;font-variant-numeric:normal;font-variant-position:normal;isolation:auto;mix-blend-mode:normal;shape-padding:0;text-decoration-color:#000000;text-decoration-line:none;text-decoration-style:solid;text-indent:0;text-orientation:mixed;text-transform:none;white-space:normal"/>
  <path d="m2 8a1.0001 1.0001 0 0 0-1 1v12a1.0001 1.0001 0 0 0 1 1h4a1.0001 1.0001 0 0 0 1-1v-12a1.0001 1.0001 0 0 0-1-1zm1 2h2v10h-2z" color="#000000" color-rendering="auto" dominant-baseline="auto" image-rendering="auto" solid-color="#000000" style="font-feature-settings:normal;font-variant-alternates:normal;font-variant-caps:normal;font-variant-ligatures:normal;font-variant-numeric:normal;font-variant-position:normal;isolation:auto;mix-blend-mode:normal;shape-padding:0;text-decoration-color:#000000;text-decoration-line:none;text-decoration-style:solid;text-indent:0;text-orientation:mixed;text-transform:none;white-space:normal"/>
  <path d="m4 1c-1.645 0-3 1.355-3 3s1.355 3 3 3 3-1.355 3-3-1.355-3-3-3zm0 2c0.56413 0 1 0.43587 1 1s-0.43587 1-1 1-1-0.43587-1-1 0.43587-1 1-1z" color="#000000" color-rendering="auto" dominant-baseline="auto" image-rendering="auto" solid-color="#000000" style="font-feature-settings:normal;font-variant-alternates:normal;font-variant-caps:normal;font-variant-ligatures:normal;font-variant-numeric:normal;font-variant-position:normal;isolation:auto;mix-blend-mode:normal;shape-padding:0;text-decoration-color:#000000;text-decoration-line:none;text-decoration-style:solid;text-indent:0;text-orientation:mixed;text-transform:none;white-space:normal"/>
 </g>
</svg>