<svg width="161.3mm" height="157.26mm" version="1.1" viewBox="0 0 161.3 157.26" xmlns="http://www.w3.org/2000/svg" xmlns:xlink="http://www.w3.org/1999/xlink">
 <path d="m82.547 12.287c-0.72817-0.0015-2.9114 0.06238-2.1836 0.04492-14.782-0.03671-29.622 5.1345-41.178 14.354a5.6808 5.6808 0 0 1-0.18164 0.14062c-34.221 25.112-32.146 83.755 3.7656 106.38a5.6808 5.6808 0 0 1 0.35547 0.24219c34.099 25.271 89.515 5.9446 100.52-35.035a5.6808 5.6808 0 0 1 0.125-0.40625c13.806-39.389-19.708-85.845-61.193-85.721a5.6808 5.6808 0 0 1-0.03125-2e-3zm3.9141 1.9746v128.74l-5.6797-5.6797c7.6015-1e-5 -11.396-0.6272-3.8105-0.12695 7.5852 0.50025-11.329-1.3734-3.793-0.375 7.5363 0.99836-11.217-2.1172-3.7617-0.625 7.455 1.4922-11.055-2.8506-3.7129-0.87109s-10.845-3.5716-3.6484-1.1133c7.1969 2.4583-10.59-4.278-3.5684-1.3516s-10.29-4.966-3.4746-1.584c6.8155 3.382-9.9438-5.6316-3.3633-1.8086 6.5805 3.823-9.5557-6.2749-3.2383-2.0273 6.3174 4.2476-9.1288-6.8901-3.1016-2.2363s-8.6585-7.4736-2.9473-2.4336-8.156-8.0295-2.7852-2.625c5.3709 5.4045-7.617-8.5486-2.6094-2.8027 5.0076 5.7459-7.0429-9.0313-2.4199-2.9688 4.623 6.0625-6.4413-9.4743-2.2227-3.1211s-5.8119-9.8784-2.0156-3.2617c3.7964 6.6166-5.1587-10.24-1.8008-3.3887 3.358 6.8517-4.4814-10.556-1.5762-3.498 2.9052 7.0575-3.7839-10.829-1.3438-3.5957 2.4401 7.2331-3.074-11.056-1.1094-3.6777 1.9646 7.3778-2.348-11.233-0.86719-3.7422 1.4808 7.491-1.6118-11.363-0.62109-3.791 0.99072 7.5722-0.87141-11.445-0.375-3.8242 0.49641 7.621-0.125-11.479-0.125-3.8418s0.62141-11.461 0.125-3.8398c-0.49641 7.621 1.3657-11.396 0.375-3.8242-0.99072 7.5722 2.1019-11.282 0.62109-3.791-1.4808 7.491 2.8318-11.12 0.86719-3.7422-1.9646 7.3778 3.5495-10.911 1.1094-3.6777-2.4401 7.2331 4.249-10.653 1.3438-3.5957-2.9052 7.0575 4.9341-10.35 1.5762-3.498-3.358 6.8517 5.5972-10.005 1.8008-3.3887-3.7965 6.6165 6.2345-9.6148 2.0156-3.2617s6.8458-9.1835 2.2227-3.1211c-4.6232 6.0624 7.4277-8.7145 2.4199-2.9688-5.0078 5.7457 7.9804-8.2052 2.6094-2.8008-5.3711 5.4044 8.4966-7.6648 2.7852-2.625-5.7114 5.0398 8.9766-7.0892 2.9492-2.4355-6.0273 4.6536 9.4171-6.4837 3.0996-2.2363-6.3175 4.2474 9.8189-5.8483 3.2383-2.0254-6.5807 3.8229 10.179-5.1905 3.3633-1.8086-6.8156 3.3819 10.496-4.5103 3.4746-1.584s10.765-3.8097 3.5684-1.3516c-7.197 2.4581 10.99-3.0926 3.6484-1.1133s11.168-2.3631 3.7129-0.87109c-7.455 1.492 11.298-1.6232 3.7617-0.625-7.5363 0.99821 11.378-0.87706 3.793-0.37695s11.412-0.12485 3.8105-0.125z" style="paint-order:stroke fill markers" xlink:href="#path2"/>
 <path id="path2" d="m82.559 6.6074c-0.7246 0.00217-1.4524 0.017222-2.1816 0.044922-16.105-0.04-32.143 5.5488-44.734 15.594-37.642 27.623-35.402 90.88 4.0996 115.77 37.51 27.799 97.283 6.952 109.39-38.127 15.188-43.331-20.923-93.416-66.572-93.279zm-1.7773 7.6543v128.74a63.97 64.369 0 0 1-55.4-32.186 63.97 64.369 0 0 1 0-64.369 63.97 64.369 0 0 1 55.4-32.184z" style="paint-order:stroke fill markers"/>
</svg>
